<?xml version="1.0" standalone="no"?>
<!DOCTYPE svg PUBLIC "-//W3C//DTD SVG 20010904//EN"
 "http://www.w3.org/TR/2001/REC-SVG-20010904/DTD/svg10.dtd">
<svg version="1.0" xmlns="http://www.w3.org/2000/svg"
 width="225.000000pt" height="225.000000pt" viewBox="0 0 225.000000 225.000000"
 preserveAspectRatio="xMidYMid meet">
<metadata>
Created by potrace 1.10, written by Peter Selinger 2001-2011
</metadata>
<g transform="translate(0.000000,225.000000) scale(0.100000,-0.100000)"
fill="#000000" stroke="none">
<path d="M79 2024 c-9 -11 -10 -20 -2 -32 8 -14 31 -17 130 -20 l120 -3 12
-57 c7 -31 66 -285 132 -563 65 -279 119 -510 119 -513 0 -3 -6 -6 -13 -6 -18
0 -64 -49 -76 -83 -17 -44 -13 -127 8 -174 20 -43 62 -73 101 -73 24 0 24 -2
4 -42 -24 -47 -15 -127 21 -173 79 -105 234 -92 293 25 27 55 28 94 2 145 -11
22 -20 39 -20 40 0 0 160 0 355 0 195 0 354 -2 352 -5 -2 -3 -11 -23 -21 -44
-43 -96 24 -210 136 -231 69 -13 157 35 184 102 18 42 17 111 -1 143 -8 14
-14 27 -15 30 0 3 34 5 76 5 81 0 105 13 91 49 -6 15 -69 16 -732 16 l-726 0
-24 25 c-21 20 -25 34 -25 83 0 62 23 102 58 102 9 0 319 0 688 0 579 0 673 2
684 15 7 8 36 131 65 272 30 142 70 337 90 433 34 165 35 175 19 187 -15 11
-185 13 -861 11 l-843 -3 -6 30 c-17 82 -73 305 -79 314 -4 7 -58 11 -144 11
-114 0 -141 -3 -152 -16z m394 -360 c26 -14 56 -16 182 -12 82 2 164 1 180 -3
23 -5 25 -7 8 -8 -12 0 -30 -12 -40 -25 l-19 -24 -21 24 c-21 23 -27 24 -148
24 -120 0 -127 -1 -150 -24 -28 -28 -30 -26 -40 27 -8 42 -1 46 48 21z m1082
-15 l40 -2 -45 -6 c-39 -5 -47 -11 -62 -41 -16 -31 -18 -32 -18 -11 0 43 -24
50 -170 51 -142 0 -160 -5 -160 -44 0 -17 -4 -15 -26 12 -19 23 -36 32 -58 33
l-31 1 29 7 c27 5 401 6 501 0z m588 -8 c5 -5 6 -19 2 -30 -7 -22 -7 -21 -27
4 -19 24 -23 25 -139 25 -125 0 -137 -4 -153 -45 -8 -19 -8 -19 -17 5 -14 36
-25 39 -124 42 l-90 2 100 5 c142 8 437 3 448 -8z m-1180 2 c-18 -2 -48 -2
-65 0 -18 2 -4 4 32 4 36 0 50 -2 33 -4z m-213 -52 c0 -15 3 -48 6 -72 l6 -44
-125 0 -126 -1 -15 63 c-9 34 -16 67 -16 73 0 6 48 10 135 10 l135 0 0 -29z
m344 -8 c3 -21 6 -54 6 -73 l0 -36 -135 0 -134 0 -6 45 c-4 26 -9 58 -11 74
l-6 27 140 0 139 0 7 -37z m344 -35 l-3 -73 -135 0 -135 0 -3 73 -4 72 142 0
141 0 -3 -72z m347 20 c-12 -102 3 -93 -151 -93 l-136 0 6 44 c3 24 6 57 6 72
l0 29 140 0 141 0 -6 -52z m315 40 c-1 -7 -6 -40 -13 -73 l-13 -60 -118 -1
-118 -1 6 46 c4 25 9 58 12 74 l6 27 119 0 c89 0 119 -3 119 -12z m-1285 -129
c4 -10 15 -19 26 -19 11 0 17 -4 14 -10 -4 -6 37 -10 115 -10 69 0 119 4 116
9 -3 5 1 11 9 15 8 3 15 11 15 19 0 21 37 18 43 -4 3 -10 13 -19 22 -19 9 0
13 -4 10 -10 -3 -5 2 -10 12 -10 11 -1 5 -6 -14 -15 -25 -11 -33 -20 -33 -40
0 -14 -4 -25 -10 -25 -5 0 -10 7 -10 16 0 37 -30 49 -133 52 -116 5 -163 -2
-172 -25 -11 -29 6 -124 26 -144 16 -16 35 -19 128 -19 100 0 112 2 134 23 17
16 22 31 20 55 -1 17 2 32 7 32 6 0 10 -16 10 -35 0 -63 23 -75 150 -75 110 0
111 0 140 30 17 17 30 26 30 20 0 -5 9 -19 20 -30 18 -18 33 -20 133 -20 108
0 114 1 135 25 12 14 24 45 28 73 5 42 3 53 -15 71 -19 19 -32 21 -128 21
-143 0 -149 -2 -168 -59 -10 -32 -13 -36 -10 -15 5 41 -28 73 -76 75 -33 2
-33 2 -4 6 16 3 42 18 57 34 33 34 48 37 48 9 0 -11 7 -20 15 -20 8 0 15 -4
15 -10 0 -6 45 -10 115 -10 70 0 115 4 115 10 0 6 7 10 16 10 9 0 18 9 21 20
6 23 43 27 43 5 0 -9 7 -18 15 -21 8 -4 12 -10 9 -15 -3 -5 39 -9 96 -9 65 0
99 4 95 10 -3 6 3 10 14 10 11 0 30 10 42 23 l21 22 -7 -49 c-8 -61 -15 -77
-26 -70 -5 3 -9 1 -9 -5 0 -5 6 -12 13 -14 7 -3 5 -6 -5 -6 -13 -1 -18 7 -18
28 0 21 -6 30 -22 35 -30 7 -176 8 -205 0 -42 -11 -61 -153 -24 -174 21 -11
161 -14 197 -4 23 6 39 31 49 77 6 29 25 28 25 -1 0 -15 -2 -15 -10 -2 -7 11
-10 -2 -10 -45 -1 -64 -17 -99 -43 -89 -12 4 -18 -9 -28 -65 l-12 -71 -100 0
-100 0 7 46 c3 26 6 60 6 75 l0 29 113 0 c76 0 107 3 97 10 -8 5 -54 10 -102
10 -75 0 -91 -3 -108 -20 -11 -11 -24 -20 -30 -20 -5 0 -19 9 -30 20 -18 18
-33 20 -129 20 -99 0 -111 -2 -124 -20 -9 -13 -23 -19 -38 -18 -23 3 -24 0
-27 -64 l-3 -68 -119 0 -120 0 0 75 0 75 128 0 c86 0 122 3 112 10 -8 5 -63
10 -123 10 -95 0 -109 -2 -124 -20 -10 -11 -22 -20 -28 -20 -6 0 -18 9 -28 20
-15 18 -29 20 -127 20 -97 0 -112 -2 -130 -20 -11 -11 -24 -20 -28 -20 -5 0
-17 9 -27 20 -16 17 -31 20 -111 20 -101 0 -124 -5 -124 -26 0 -20 -38 -17
-44 4 -12 42 -17 82 -11 82 4 0 20 -9 36 -20 25 -18 42 -21 128 -19 121 2 138
13 133 93 -4 62 -35 95 -90 97 -30 2 -32 3 -9 6 15 2 27 9 27 14 0 5 7 9 15 9
8 0 15 8 15 18 0 10 3 21 6 25 10 10 33 -4 39 -24z m-320 1 c3 -11 15 -20 26
-20 10 0 19 -4 19 -10 0 -5 8 -10 18 -11 11 0 7 -4 -11 -11 -17 -6 -29 -19
-33 -36 -3 -15 -7 -31 -8 -36 -2 -9 -46 122 -46 137 0 16 29 5 35 -13z m818
-47 c-18 -2 -48 -2 -65 0 -18 2 -4 4 32 4 36 0 50 -2 33 -4z m-538 -70 c3 -27
9 -60 11 -75 l6 -28 -115 0 -115 0 -16 65 c-9 35 -16 69 -16 75 0 6 43 10 119
10 l120 0 6 -47z m325 18 c0 -15 3 -49 6 -75 l7 -46 -132 0 -131 0 0 29 c0 15
-3 49 -6 75 l-7 46 132 0 131 0 0 -29z m330 -46 l0 -75 -130 0 -130 0 0 75 0
75 130 0 130 0 0 -75z m326 23 c-3 -29 -6 -63 -6 -75 0 -23 -2 -23 -131 -23
-115 0 -130 2 -125 16 3 9 6 42 6 75 l0 59 131 0 132 0 -7 -52z m300 29 c-3
-12 -10 -46 -16 -75 l-12 -52 -110 0 c-99 0 -109 2 -104 18 3 9 8 43 12 75 l6
57 115 0 c115 0 115 0 109 -23z m-1252 -239 c12 -106 20 -98 -94 -98 l-100 0
-6 28 c-3 15 -10 43 -15 62 -16 62 -18 60 100 60 l108 0 7 -52z m306 0 c0 -29
3 -63 6 -75 6 -23 6 -23 -114 -23 l-120 0 -6 58 c-4 31 -9 65 -12 75 -5 16 5
17 120 17 l126 0 0 -52z m626 35 c-2 -10 -7 -44 -11 -75 l-6 -58 -113 0 c-62
0 -115 2 -117 4 -2 2 -3 36 -1 75 l4 71 124 0 c115 0 125 -2 120 -17z m-1166
-47 c0 -42 -15 -56 -24 -22 -3 13 -9 31 -12 40 -4 12 0 16 15 16 17 0 21 -6
21 -34z m278 -16 c-3 -27 -1 -47 3 -44 4 2 13 -5 19 -16 6 -11 17 -20 25 -20
26 0 26 -19 0 -42 -15 -13 -25 -32 -25 -49 0 -42 -18 -44 -22 -2 -4 50 -41 71
-127 72 -85 1 -111 -20 -111 -90 0 -38 5 -53 29 -78 28 -30 32 -31 109 -31 82
0 112 12 112 46 0 8 5 14 10 14 6 0 10 -4 10 -10 0 -5 9 -19 20 -30 17 -17 33
-20 120 -20 92 0 101 2 114 23 15 22 19 49 17 102 -1 21 -10 36 -31 50 -31 21
-40 45 -17 45 21 0 49 37 44 57 -17 61 -17 73 -2 73 13 0 22 -37 16 -72 -3
-21 21 -58 37 -58 38 0 32 -27 -10 -43 -15 -5 -18 -19 -18 -73 0 -70 16 -104
48 -104 9 0 12 -3 8 -7 -4 -5 -141 -9 -304 -9 -164 -1 -307 -4 -319 -7 -27 -7
-29 0 -7 24 14 16 15 25 4 68 -6 28 -10 56 -7 63 2 7 -2 20 -9 29 -18 20 -23
90 -7 96 6 2 14 -5 18 -16 4 -14 18 -22 52 -27 49 -7 154 0 173 11 8 5 11 28
8 66 -3 46 -1 59 10 59 11 0 13 -11 10 -50z m622 -10 c0 -56 2 -61 26 -70 14
-6 22 -15 19 -20 -4 -6 -12 -7 -18 -4 -7 4 -9 4 -5 -1 4 -4 0 -14 -9 -20 -12
-9 -18 -32 -21 -80 -6 -90 1 -95 129 -95 71 0 100 4 108 14 7 8 17 42 23 76
11 59 11 63 -10 80 -28 23 -28 46 -1 53 11 3 23 15 26 26 3 11 8 19 12 17 3
-2 4 16 2 40 -3 38 0 44 17 44 18 0 18 -4 9 -50 -10 -53 0 -80 30 -80 21 0 11
-23 -15 -35 -12 -5 -22 -16 -22 -23 0 -7 -4 -10 -10 -7 -6 4 -10 -7 -10 -24 0
-17 -4 -31 -10 -31 -16 0 -12 -39 7 -71 17 -28 19 -29 104 -29 91 0 111 9 121
55 5 19 5 19 13 1 5 -12 3 -29 -6 -45 l-15 -26 -287 -2 c-158 -1 -299 2 -314
7 l-28 8 28 1 c44 1 67 18 67 49 0 21 2 24 10 12 8 -12 10 -9 10 13 0 15 -4
27 -10 27 -5 0 -10 16 -10 35 0 25 -5 38 -17 42 -10 4 -24 12 -30 19 -10 10
-6 14 17 23 17 5 30 17 30 26 0 9 5 13 10 10 6 -3 10 1 10 9 0 9 -4 16 -10 16
-5 0 -10 7 -10 15 0 8 5 15 11 15 6 0 8 9 4 20 -5 14 -2 20 9 20 13 0 16 -12
16 -60z m583 38 c-2 -13 -9 -32 -13 -43 -5 -11 -11 -40 -14 -65 -10 -91 -18
-120 -33 -120 -10 0 -12 6 -8 20 3 10 0 30 -7 42 -7 13 -11 27 -10 32 2 5 -4
3 -13 -4 -8 -7 -18 -10 -22 -6 -3 3 0 6 8 6 11 0 11 2 -1 10 -12 8 -11 10 5
10 47 0 73 43 76 123 0 10 8 17 19 17 14 0 17 -6 13 -22z m-1228 -170 c2 -7 6
-41 10 -75 l6 -63 -90 0 -91 0 -6 28 c-3 15 -10 43 -15 62 -16 61 -17 60 86
60 68 0 97 -4 100 -12z m295 -40 c0 -29 3 -63 6 -75 6 -23 6 -23 -104 -23
l-110 0 -6 28 c-2 15 -8 48 -11 75 l-6 47 115 0 116 0 0 -52z m296 30 c-3 -13
-6 -47 -6 -75 l0 -53 -110 0 -110 0 0 75 0 75 116 0 c116 0 116 0 110 -22z
m288 -35 c-4 -32 -8 -65 -9 -73 -1 -12 -23 -16 -111 -18 l-109 -3 3 76 4 75
115 0 114 0 -7 -57z m265 50 c0 -5 -6 -37 -13 -73 l-12 -65 -93 -3 -92 -3 6
48 c3 26 9 60 11 76 l6 27 94 0 c52 0 94 -3 93 -7z m-1204 -453 c16 -6 14 -8
-13 -13 -17 -3 -49 -22 -70 -42 -36 -32 -39 -33 -35 -11 4 17 -3 31 -24 50
l-28 27 75 -2 c41 -1 84 -5 95 -9z m173 2 c9 -6 5 -12 -14 -21 -23 -10 -25
-15 -19 -48 l7 -36 -27 32 c-15 17 -40 38 -56 47 -16 8 -29 19 -29 24 0 12
120 13 138 2z m986 -1 c4 0 -2 -9 -14 -19 -17 -13 -23 -29 -22 -53 1 -30 -1
-32 -10 -14 -25 44 -73 75 -118 75 -41 0 -93 -29 -112 -62 -12 -23 -13 -22
-18 12 -3 23 -13 38 -29 46 -21 11 -21 12 -5 16 16 4 304 3 328 -1z m-1078
-75 c47 -47 47 -95 0 -142 -70 -70 -175 -26 -176 74 0 36 5 49 31 73 46 42 99
41 145 -5z m985 5 c23 -24 29 -38 29 -73 0 -51 -18 -81 -59 -98 -73 -30 -146
19 -146 97 0 38 5 49 33 74 45 41 102 41 143 0z"/>
<path d="M743 404 c-15 -39 38 -67 60 -32 8 12 7 21 -2 32 -17 21 -50 20 -58
0z"/>
<path d="M1731 406 c-9 -11 -10 -20 -1 -36 13 -24 38 -23 53 1 23 37 -25 68
-52 35z"/>
</g>
</svg>
